# xmcd
#
# Track frame offsets: 
#        150
#        1193
#        20084
#        41492
#        70714
#        102127
#        132336
#        168931
#        209203
#        231641
#        255646
#        266707
#
# Disc length: 3865 seconds
#
# Revision: 0
# Processed by: cddbd v1.5.2PL0 Copyright (c) Steve Scherf et al.
# Submitted via: ExactAudioCopy v0.95a3
#
DISCID=aa0f170c
DTITLE=Johnny Winter - Live Bootleg Series, Vol. 1
DYEAR=2007
DGENRE=Blues
TTITLE0=Introduction
TTITLE1=Johnny B. Goode
TTITLE2=Messin' with the Kid
TTITLE3=Help Me
TTITLE4=Hideaway
TTITLE5=Come on in My Kitchen
TTITLE6=Rollin' and Tumblin'
TTITLE7=Stranger
TTITLE8=Jumpin' Jack Flash
TTITLE9=Bony Moronie
TTITLE10=Closing
TTITLE11=It's All Over Now
EXTD=
EXTT0=
EXTT1=
EXTT2=
EXTT3=
EXTT4=
EXTT5=
EXTT6=
EXTT7=
EXTT8=
EXTT9=
EXTT10=
EXTT11=
PLAYORDER=
